/* XPM */
static char *e3429ff10e504168e149d4b3462ed42f5xXuFrfj6k5kBhXD[] = {
/* columns rows colors chars-per-pixel */
"16 32 5 1 ",
"  c None",
". c #E452A7",
"X c #FE6DC5",
"o c #FFAFE0",
"O c white",
/* pixels */
"                ",
"                ",
"                ",
"                ",
"                ",
"                ",
"                ",
"                ",
"                ",
"                ",
"                ",
"         oo     ",
"       ooXXo    ",
"     ooXXXXXo   ",
"   oOXXXXXXXXo  ",
"  oOOOXXXXXooo  ",
"  OOOXXXXooXX.  ",
"  oOoXXooXX..   ",
"  .OXooXX..     ",
"   .XoX..       ",
"    ...         ",
"                ",
"                ",
"                ",
"                ",
"                ",
"                ",
"                ",
"                ",
"                ",
"                ",
"                "
};
