/* XPM */
static char *_4809f55d7b6441cabe0b8c893c8cf77c6dJ0rgXBQn8ACYJ[] = {
/* columns rows colors chars-per-pixel */
"16 32 4 1 ",
"  c #068BB9",
". c #0CA9CC",
"X c #2CB2CE",
"o c #8DCBDA",
/* pixels */
"oooooooooooooooo",
"oXXXXXXXoXXXXXXX",
"oX......oX......",
"oX.  ooooX.  ooo",
"oX. oXXXoX. oXXX",
"oX.oX...oX.oX...",
"oX.oX.  oX.oX.  ",
"oX.oX.  oX.oX.  ",
"oooooooooooooooo",
"oXXXXXXXoXXXXXXX",
"oX......oX......",
"oX.  ooooX.  ooo",
"oX. oXXXoX. oXXX",
"oX.oX...oX.oX...",
"oX.oX.  oX.oX.  ",
"oX.oX.  oX.oX.  ",
"oooooooooooooooo",
"oXXXXXXXoXXXXXXX",
"oX......oX......",
"oX.  ooooX.  ooo",
"oX. oXXXoX. oXXX",
"oX.oX...oX.oX...",
"oX.oX.  oX.oX.  ",
"oX.oX.  oX.oX.  ",
"oooooooooooooooo",
"oXXXXXXXoXXXXXXX",
"oX......oX......",
"oX.  ooooX.  ooo",
"oX. oXXXoX. oXXX",
"oX.oX...oX.oX...",
"oX.oX.  oX.oX.  ",
"oX.oX.  oX.oX.  "
};
