/* XPM */
static char *_9bbea17547d4a9ebffd3189ed42c12euRZCLJpzSykfHdPk[] = {
/* columns rows colors chars-per-pixel */
"16 32 9 1 ",
"  c black",
". c #050000",
"X c #060202",
"o c #060606",
"O c #734312",
"+ c #7A502A",
"@ c #8E5923",
"# c #A9703C",
"$ c #B68049",
/* pixels */
"                ",
"++++++++++++++++",
"                ",
" +$+#@#@@@@@## O",
"o      .. ..  X@",
" +$+#@#@@@@@## @",
"o    . .....  X@",
" +$+#@#@@@@@## @",
"o    . .. ..  .@",
" +$+#@#@@@@@## @",
"o    . .....  o@",
" +$+#@#@@@@@## @",
"o    . . . .  .@",
" +$+#@#@@@@@## @",
"o    . .....  .@",
" +$+#@#@@@@@## @",
"o    . .....  X@",
" +$+#@#@@@@@## @",
"o    . . ...  X@",
" +$+#@#@@@@@## @",
"o    . .....  X@",
" +$+#@#@@@@@## @",
"o    . ... .  X@",
" +$+#@#@@@@@## @",
"o    . ... .  X@",
" +$+#@#@@@@@## @",
"o    . ... .  X@",
" +$+#@#@@@@@## @",
"o    . .....  .@",
" +$+#@#@@@@@## @",
"o    . ..o..  o.",
"OOOOOOOOOOOOOOOO"
};
