/* XPM */
static char *_d17d0770af346dbf6adeed5f7aa03a6BSdLI48sbEcxHBUW[] = {
/* columns rows colors chars-per-pixel */
"16 32 6 1 ",
"  c None",
". c black",
"X c #B46D00",
"o c #49911C",
"O c #D5B68B",
"+ c white",
/* pixels */
"                ",
"       ...      ",
"      .ooo.     ",
"      .ooo.     ",
"     .ooo..     ",
"     ......     ",
"   ..+++++..    ",
"  .OO.....OO.   ",
" .OOOOOOOOOO.   ",
" .OO.OOXOOXOO.  ",
" ....OXOXO.XO.  ",
"    .OOOOO...   ",
"    .OOOOO.     ",
"    .XOXOOX.    ",
"    .OOOOOX.    ",
"    XOOXOOX.    ",
"    XOOXOOO.    ",
"    .XO.OOX.    ",
"    .XX.XXX.    ",
"    .OX.XXX.    ",
"    .OX.XOX.    ",
"    .OX.OOX.    ",
"    .XX.OOX.    ",
"   ..XX.XOX.    ",
"   ..XX.XXX.    ",
"    .XX..XX.    ",
"    .....OX.    ",
"     ....OX..   ",
"      ...OX..   ",
"       ..XX..   ",
"       ..XX..   ",
"        ....    "
};
