/* XPM */
static char *_bd841786f524aa4ed984b41de853f20ob9a1XKIuvenN2Cr[] = {
/* columns rows colors chars-per-pixel */
"16 32 6 1 ",
"  c None",
". c black",
"X c #B46D00",
"o c #49911C",
"O c #D5B68B",
"+ c white",
/* pixels */
"                ",
"      ....      ",
"     .oooo.     ",
"     .ooo+.     ",
"     ......     ",
"   ....XOX.     ",
"  ..O+++...     ",
"  .X.XXX++..    ",
"  .X.XXXX.+X.   ",
"  .X.XXXO.OO.   ",
"   ..X.XOO.OX.  ",
"   .XX..XOOOX.  ",
"   .XXX..XXX.   ",
"   .XXXX....    ",
"    .XXXX.      ",
"    .XXOO.      ",
"    .XXOO.      ",
"    .XXXO.      ",
"     .XXOO.     ",
"     .XXXO.     ",
"     ..XXO.     ",
"     ..XXX.     ",
"     ...XX.     ",
"     ..XXO.     ",
"     ..XO..     ",
"     ..XX..     ",
"    ...XO.O.    ",
"   ....XO...    ",
"   ....XX...    ",
"   ....XOO..    ",
"    .......     ",
"      ...       "
};
