/* XPM */
static char *ccdbac7f54bc483cc54415476962757cenH8dTinPl6pOJEp[] = {
/* columns rows colors chars-per-pixel */
"16 32 6 1 ",
"  c None",
". c black",
"X c #B46D00",
"o c #49911C",
"O c #D5B68B",
"+ c white",
/* pixels */
"                ",
"      ....      ",
"     .oooo.     ",
"     .oooo.     ",
"     .ooo..     ",
"      .......   ",
"     ...+++O..  ",
"    ..++XXX.X.  ",
"   .X+.XXXX.X.  ",
"   .OO.OXXX.X.  ",
"  .XO.OOX.X..   ",
"  .XOOOX..XX.   ",
"   .XXX..XXX.   ",
"    ....XXXX.   ",
"      .XXXX.    ",
"      .OOXX.    ",
"      .OOXX.    ",
"      .OXXX.    ",
"     .OOXX.     ",
"     .OXXX.     ",
"     .OXX..     ",
"     .XXX..     ",
"     .XX...     ",
"     .OXX..     ",
"     ..OX..     ",
"     ..XX..     ",
"    .O.OX...    ",
"    ...OX....   ",
"    ...XX....   ",
"    ..OOX....   ",
"     .......    ",
"       ...      "
};
