/* XPM */
static char *f21696931cbd48a49f3b14de1c49b555x1UZJySMNAH98ZqX[] = {
/* columns rows colors chars-per-pixel */
"16 32 6 1 ",
"  c None",
". c black",
"X c #B46D00",
"o c #49911C",
"O c #D5B68B",
"+ c white",
/* pixels */
"                ",
"      ...       ",
"     .ooo.      ",
"     .+ooo.     ",
"     ....o.     ",
"     .OOX..     ",
"    .+.O..+.    ",
"   .+.X...+..   ",
"   ...XXX.+.X.  ",
"  .OX.OO...XXX. ",
" .OX.XOO.OO..X. ",
" .XX.XXXO.XOOX. ",
"  ...OXXXX.XX.  ",
"    .XOOOXX..   ",
"    .OOOOOX.    ",
"    .OXXXOX.    ",
"   .XOOXXOX.    ",
"   .XO..XXO.    ",
"   .XOX.XOO.    ",
"   .XXX.XOOX.   ",
"   .XOX..XOX.   ",
"   .XX...XOX.   ",
"    .O...XOX.   ",
"    .XX..XX.    ",
"    .XX..OO.    ",
"    .XX..OX.    ",
"   .XX...OX.    ",
"   ......XX.    ",
"    .....XO.    ",
"      ....OX.   ",
"       ......   ",
"         ...    "
};
