/* XPM */
static char *aa9f266162624f2dd647e1c58bbf321e20vvHBjGmdDcNIr9[] = {
/* columns rows colors chars-per-pixel */
"16 32 18 1 ",
"  c black",
". c #050000",
"X c #060404",
"o c #060606",
"O c #001919",
"+ c #041C1C",
"@ c #041E1E",
"# c #051F1F",
"$ c #052020",
"% c #062121",
"& c #194646",
"* c #1A4848",
"= c #1D4848",
"- c #204949",
"; c #214A4A",
": c #6A6A6A",
"> c gray42",
", c #6C6B6B",
/* pixels */
"o              o",
" ::::::::,::::: ",
" :&==========&: ",
" :=@. .. ...@=: ",
".=@..==;;==.o@*.",
" ,=@ ,,&&,: %=, ",
".*@oo  :,  oo@*.",
" ,=@o%@  @%o@=: ",
" :=%o@;@@;@.@=: ",
" :=@o@;;;;@o%=: ",
" :=%.%;;;;@o@=> ",
" :=@o@;  ;%.%=> ",
".*@.o  ::  oo@*.",
" ,=@ ,:*&,: %=, ",
".*@o.==;;==..@&.",
" ,=%        %=: ",
" :=O:::,::::O=: ",
" :=;===&====;=: ",
" :@%@@%%@@@@@@, ",
"o o.o..oo.o.oo o",
"o%%@@++%@@+++@%o",
"o@+,:::&=,::,@%o",
"o%=    ..    ;@o",
"o%;.oooooooo.;@o",
".%=.%%%%%%@%.;+o",
"o%@@@@@@@@@@@@%o",
"o%O,,==;;;=,,+%o",
".%;  .o..o.  ;+o",
"o%;.ooooo.oo.;%.",
"o%;.%%@@%%%%.;@o",
".%%%%%%@%%@@%%%o",
"oo.oo.ooo.oooooo"
};
